/* XPM */
static const char * ngplant_xpm[] = {
"48 48 152 2",
"  	c None",
". 	c #095D07",
"+ 	c #0C610A",
"@ 	c #176D12",
"# 	c #227719",
"$ 	c #297E1E",
"% 	c #2A7F1F",
"& 	c #166911",
"* 	c #0E5F0A",
"= 	c #0C5F0A",
"- 	c #075B06",
"; 	c #0F660C",
"> 	c #308924",
", 	c #46A235",
"' 	c #4AA638",
") 	c #4DA83A",
"! 	c #4FA93B",
"~ 	c #52AB3D",
"{ 	c #55AD3F",
"] 	c #57AF41",
"^ 	c #5AB142",
"/ 	c #5DB344",
"( 	c #53A73D",
"_ 	c #2F8223",
": 	c #0F5F0A",
"< 	c #0A5E08",
"[ 	c #328F26",
"} 	c #42A133",
"| 	c #45A235",
"1 	c #48A437",
"2 	c #5FB446",
"3 	c #62B647",
"4 	c #64B749",
"5 	c #4DA038",
"6 	c #166811",
"7 	c #0C5E08",
"8 	c #136A0F",
"9 	c #3B9B2E",
"0 	c #409F31",
"a 	c #64B849",
"b 	c #67BA4B",
"c 	c #6ABB4D",
"d 	c #4D9E38",
"e 	c #12630C",
"f 	c #146B0F",
"g 	c #3A9A2E",
"h 	c #3D9D30",
"i 	c #6CBD4E",
"j 	c #6DBD4F",
"k 	c #3C8D2B",
"l 	c #0D5F0A",
"m 	c #0A5F08",
"n 	c #37972B",
"o 	c #3A9B2E",
"p 	c #6FBF50",
"q 	c #72C152",
"r 	c #65B548",
"s 	c #1D6E14",
"t 	c #0C5E09",
"u 	c #065A06",
"v 	c #2B8A22",
"w 	c #38992C",
"x 	c #74C353",
"y 	c #77C455",
"z 	c #4D9B36",
"A 	c #0F600A",
"B 	c #35972A",
"C 	c #79C657",
"D 	c #73C052",
"E 	c #338224",
"F 	c #0F600B",
"G 	c #065905",
"H 	c #288820",
"I 	c #7CC858",
"J 	c #7EC959",
"K 	c #5EAA43",
"L 	c #0F610A",
"M 	c #005200",
"N 	c #025502",
"O 	c #339629",
"P 	c #76C354",
"Q 	c #51A03A",
"R 	c #1F7016",
"S 	c #12640D",
"T 	c #11630C",
"U 	c #045603",
"V 	c #176F12",
"W 	c #4E9E37",
"X 	c #0A5C08",
"Y 	c #055903",
"Z 	c #25851E",
"` 	c #6BBB4D",
" .	c #25751A",
"..	c #0C5D08",
"+.	c #065C05",
"@.	c #2F9226",
"#.	c #61B246",
"$.	c #14660E",
"%.	c #309427",
"&.	c #60B145",
"*.	c #10610B",
"=.	c #126A0F",
"-.	c #65B849",
";.	c #156710",
">.	c #1C7A17",
",.	c #287B1D",
"'.	c #278820",
").	c #449731",
"!.	c #0B5E08",
"~.	c #065A05",
"{.	c #2D9126",
"].	c #54A83D",
"^.	c #10680D",
"/.	c #2E9226",
"(.	c #57AC40",
"_.	c #055904",
":.	c #24861E",
"<.	c #54A93D",
"[.	c #10620B",
"}.	c #0F690D",
"|.	c #2B9024",
"1.	c #439931",
"2.	c #0B5D08",
"3.	c #075C06",
"4.	c #268C20",
"5.	c #4DA539",
"6.	c #207518",
"7.	c #0A5D07",
"8.	c #21851B",
"9.	c #288F22",
"0.	c #3F972F",
"a.	c #0B5D07",
"b.	c #035803",
"c.	c #157312",
"d.	c #137011",
"e.	c #0E680C",
"f.	c #0B6209",
"g.	c #0A6008",
"h.	c #0E650C",
"i.	c #136B0E",
"j.	c #176F13",
"k.	c #1B7515",
"l.	c #1E7818",
"m.	c #257E1C",
"n.	c #247C1C",
"o.	c #227A1A",
"p.	c #1A7114",
"q.	c #11640C",
"r.	c #0B5C08",
"s.	c #005300",
"t.	c #045702",
"u.	c #045804",
"                                                                                                ",
"                                                                                                ",
"                                                                                                ",
"                                                                                                ",
"                                                                                                ",
"                                                                                                ",
"                                                                                                ",
"                                                                                                ",
"                                                                                                ",
"                                                                                                ",
"                                                                                                ",
"                                                                                                ",
"                                        . + @ # $ % # & * =                                     ",
"                                  - ; > , ' ) ! ~ { ] ^ / ( _ : =                               ",
"                                < [ } | 1 ' ) ! ~ { ] ^ / 2 3 4 5 6 7                           ",
"                              8 9 0 } | 1 ' ) ! ~ { ] ^ / 2 3 a b c d e                         ",
"                            f g h 0 } | 1 ' ) ! ~ { ] ^ / 2 3 a b c i j k l                     ",
"                          m n o h 0 } | 1 ' ) ! ~ { ] ^ / 2 3 a b c i p q r s t                 ",
"                        u v w o h 0 } | 1 ' ) ! ~ { ] ^ / 2 3 a b c i p q x y z A               ",
"                        ; B w o h 0 } | 1 ' ) ! ~ { ] ^ / 2 3 a b c i p q x y C D E F           ",
"                      G H B w o h 0 } | 1 ' ) ! ~ { ] ^ / 2 3 a b c i p q x y C I J K L M N     ",
"                      - O B w o h 0 } | 1 ' ) ! ~ { ] ^ / 2 3 a b c i p q x P Q R S T     U     ",
"                      V O B w o h 0 } | 1 ' ) ! ~ { ] ^ / 2 3 a b c i p q W T X                 ",
"                    Y Z O B w o h 0 } | 1 ' ) ! ~ { ] ^ / 2 3 a b c i `  ...                    ",
"                    +.@.O B w o h 0 } | 1 ' ) ! ~ { ] ^ / 2 3 a b c #.$.                        ",
"                    . %.O B w o h 0 } | 1 ' ) ! ~ { ] ^ / 2 3 a b &.*.                          ",
"                    =.%.O B w o h 0 } | 1 ' ) ! ~ { ] ^ / 2 3 a -.;.                            ",
"                    >.%.O B w o h 0 } | 1 ' ) ! ~ { ] ^ / 2 3 a ,.                              ",
"                  +.'.%.O B w o h 0 } | 1 ' ) ! ~ { ] ^ / 2 3 ).!.                              ",
"                  ~.{.%.O B w o h 0 } | 1 ' ) ! ~ { ] ^ / 2 ]...                                ",
"                  ^./.%.O B w o h 0 } | 1 ' ) ! ~ { ] ^ / (.F                                   ",
"                _.:./.%.O B w o h 0 } | 1 ' ) ! ~ { ] ^ <.[.                                    ",
"                }.|./.%.O B w o h 0 } | 1 ' ) ! ~ { ] 1.2.                                      ",
"              3.4.|./.%.O B w o h 0 } | 1 ' ) ! ~ 5.6.7.                                        ",
"            _.8.9.|./.%.O B w o h 0 } | 1 ' ) 0.6.a.                                            ",
"          b.c.d.e.f.g.f.h.i.j.k.l.m.n.o.p.q.!.r.                                                ",
"      s.M t.u.                                                                                  ",
"      M                                                                                         ",
"                                                                                                ",
"                                                                                                ",
"                                                                                                ",
"                                                                                                ",
"                                                                                                ",
"                                                                                                ",
"                                                                                                ",
"                                                                                                ",
"                                                                                                ",
"                                                                                                "};
